<svg width="218" height="101" viewBox="0 0 218 101" fill="none" xmlns="http://www.w3.org/2000/svg">
<g filter="url(#filter0_d_61814_32)">
<path d="M19.904 71.192C19.52 71.192 19.2213 71.064 19.008 70.808C18.8373 70.5093 18.752 70.168 18.752 69.784C18.7947 69.144 18.9227 68.76 19.136 68.632C19.3493 68.504 19.7547 68.44 20.352 68.44C21.5893 68.44 22.5067 68.2267 23.104 67.8C23.7013 67.3307 24.064 66.776 24.192 66.136C24.3627 65.4533 24.4693 64.5787 24.512 63.512V38.104C24.4693 37.0373 24.3627 36.184 24.192 35.544C24.064 34.8613 23.7013 34.3067 23.104 33.88C22.5067 33.4107 21.5893 33.176 20.352 33.176H19.968C19.5413 33.176 19.2427 33.112 19.072 32.984C18.9013 32.8133 18.7947 32.4293 18.752 31.832C18.752 31.448 18.8373 31.128 19.008 30.872C19.2213 30.5733 19.52 30.424 19.904 30.424C22.6773 30.552 25.1947 30.616 27.456 30.616C30.016 30.616 32.6827 30.552 35.456 30.424C35.84 30.424 36.1173 30.5733 36.288 30.872C36.5013 31.128 36.608 31.448 36.608 31.832C36.5653 32.472 36.4373 32.856 36.224 32.984C36.0107 33.112 35.6053 33.176 35.008 33.176C33.7707 33.176 32.8533 33.4107 32.256 33.88C31.6587 34.3067 31.2747 34.8613 31.104 35.544C30.976 36.184 30.8907 37.0373 30.848 38.104V49.432H50.944V38.104C50.9013 37.0373 50.7947 36.184 50.624 35.544C50.496 34.8613 50.1333 34.3067 49.536 33.88C48.9387 33.4107 48.0213 33.176 46.784 33.176H46.4C45.9733 33.176 45.6533 33.112 45.44 32.984C45.2693 32.8133 45.1627 32.4293 45.12 31.832C45.12 31.448 45.2267 31.128 45.44 30.872C45.6533 30.5733 45.9307 30.424 46.272 30.424C49.0453 30.552 51.712 30.616 54.272 30.616C56.6187 30.616 59.1573 30.552 61.888 30.424C62.272 30.424 62.5493 30.5733 62.72 30.872C62.9333 31.128 63.04 31.448 63.04 31.832C62.9973 32.472 62.848 32.856 62.592 32.984C62.3787 33.112 61.9947 33.176 61.44 33.176C60.2027 33.176 59.264 33.4107 58.624 33.88C58.0267 34.3067 57.6427 34.8613 57.472 35.544C57.344 36.184 57.2587 37.0373 57.216 38.104V63.512C57.2587 64.5787 57.344 65.4533 57.472 66.136C57.6427 66.776 58.0267 67.3307 58.624 67.8C59.264 68.2267 60.2027 68.44 61.44 68.44H61.824C62.208 68.44 62.4853 68.5253 62.656 68.696C62.8693 68.824 62.9973 69.1867 63.04 69.784C63.04 70.168 62.9333 70.5093 62.72 70.808C62.5493 71.064 62.272 71.192 61.888 71.192C59.1573 71.064 56.5973 71 54.208 71C51.6907 71 49.0453 71.064 46.272 71.192C45.9307 71.192 45.6533 71.064 45.44 70.808C45.2267 70.5093 45.12 70.168 45.12 69.784C45.1627 69.144 45.2907 68.76 45.504 68.632C45.76 68.504 46.1867 68.44 46.784 68.44C48.0213 68.44 48.9387 68.2267 49.536 67.8C50.1333 67.3307 50.496 66.776 50.624 66.136C50.7947 65.4533 50.9013 64.5787 50.944 63.512V52.184H30.848V63.512C30.8907 64.5787 30.976 65.4533 31.104 66.136C31.2747 66.776 31.6587 67.3307 32.256 67.8C32.8533 68.2267 33.7707 68.44 35.008 68.44H35.392C35.8187 68.44 36.1173 68.5253 36.288 68.696C36.4587 68.824 36.5653 69.1867 36.608 69.784C36.608 70.168 36.5013 70.5093 36.288 70.808C36.1173 71.064 35.84 71.192 35.456 71.192C32.7253 71.064 30.08 71 27.52 71C25.216 71 22.6773 71.064 19.904 71.192ZM88.174 72.28C84.1207 72.28 80.5367 71.32 77.422 69.4C74.35 67.4373 71.9607 64.856 70.254 61.656C68.59 58.456 67.758 55.0213 67.758 51.352C67.758 46.872 68.7607 42.968 70.766 39.64C72.814 36.312 75.4167 33.7733 78.574 32.024C81.7313 30.232 84.9313 29.336 88.174 29.336C92.27 29.336 95.8753 30.3173 98.99 32.28C102.147 34.2 104.558 36.76 106.222 39.96C107.929 43.1173 108.782 46.5307 108.782 50.2C108.782 54.68 107.758 58.6053 105.71 61.976C103.662 65.304 101.038 67.864 97.838 69.656C94.638 71.4053 91.4167 72.28 88.174 72.28ZM88.11 69.464C91.0113 69.464 93.422 68.6107 95.342 66.904C97.3047 65.1547 98.7553 62.8293 99.694 59.928C100.675 56.984 101.166 53.7413 101.166 50.2C101.166 46.9147 100.675 43.9067 99.694 41.176C98.7127 38.4027 97.2407 36.2053 95.278 34.584C93.3153 32.92 90.926 32.088 88.11 32.088C83.8433 32.088 80.622 33.9013 78.446 37.528C76.3127 41.112 75.246 45.656 75.246 51.16C75.246 54.488 75.7153 57.5387 76.654 60.312C77.6353 63.0853 79.086 65.304 81.006 66.968C82.926 68.632 85.294 69.464 88.11 69.464ZM138.455 71.32C137.815 71.32 137.367 71.1067 137.111 70.68L122.711 38.104H122.519L122.647 63.512C122.689 64.664 122.775 65.56 122.903 66.2C123.031 66.7973 123.372 67.3307 123.927 67.8C124.524 68.2267 125.441 68.44 126.679 68.44H127.062C127.489 68.44 127.788 68.5253 127.958 68.696C128.172 68.824 128.3 69.1867 128.343 69.784C128.343 70.168 128.236 70.5093 128.023 70.808C127.852 71.064 127.575 71.192 127.191 71.192L125.591 71.128C123.628 71.0427 122.22 71 121.367 71C119.916 71 117.804 71.064 115.031 71.192C114.647 71.192 114.348 71.064 114.135 70.808C113.964 70.5093 113.879 70.168 113.879 69.784C113.921 69.144 114.049 68.76 114.263 68.632C114.476 68.504 114.881 68.44 115.479 68.44C116.716 68.44 117.612 68.2267 118.167 67.8C118.764 67.3307 119.127 66.7973 119.255 66.2C119.383 65.56 119.468 64.664 119.51 63.512L119.639 38.104C119.639 36.7813 119.489 35.8 119.191 35.16C118.892 34.4773 118.444 34.008 117.847 33.752C117.292 33.4533 116.46 33.1973 115.351 32.984C115.18 32.9413 114.924 32.8987 114.583 32.856C114.241 32.7707 114.007 32.6427 113.879 32.472C113.793 32.2587 113.751 31.9387 113.751 31.512C113.751 31 113.879 30.6587 114.135 30.488C114.433 30.3173 114.881 30.232 115.479 30.232C117.996 30.232 120.065 30.4027 121.687 30.744C123.308 31.0427 124.716 31.6827 125.911 32.664C127.148 33.6453 128.172 35.096 128.983 37.016L139.991 61.72H140.183L152.791 30.616H156.439C158.785 30.616 161.324 30.552 164.055 30.424C164.439 30.424 164.716 30.5733 164.887 30.872C165.1 31.128 165.207 31.448 165.207 31.832C165.164 32.472 165.015 32.856 164.759 32.984C164.545 33.112 164.161 33.176 163.607 33.176C162.369 33.176 161.452 33.4107 160.855 33.88C160.257 34.3067 159.873 34.8613 159.703 35.544C159.575 36.184 159.489 37.0373 159.447 38.104V63.512C159.489 64.5787 159.575 65.4533 159.703 66.136C159.873 66.776 160.257 67.3307 160.855 67.8C161.452 68.2267 162.369 68.44 163.607 68.44H163.991C164.375 68.44 164.652 68.5253 164.823 68.696C165.036 68.824 165.164 69.1867 165.207 69.784C165.207 70.168 165.1 70.5093 164.887 70.808C164.716 71.064 164.439 71.192 164.055 71.192C161.324 71.064 158.764 71 156.375 71C153.9 71 151.276 71.064 148.503 71.192C148.119 71.192 147.82 71.064 147.607 70.808C147.436 70.5093 147.351 70.168 147.351 69.784C147.393 69.144 147.521 68.76 147.735 68.632C147.948 68.504 148.353 68.44 148.951 68.44C150.188 68.44 151.105 68.2267 151.703 67.8C152.3 67.3307 152.663 66.776 152.791 66.136C152.961 65.4533 153.068 64.5787 153.111 63.512V38.104H152.919L139.735 70.68C139.564 71.1067 139.137 71.32 138.455 71.32ZM171.778 71.192C171.436 71.192 171.159 71.064 170.946 70.808C170.775 70.5093 170.69 70.168 170.69 69.784C170.732 69.144 170.86 68.76 171.074 68.632C171.287 68.504 171.692 68.44 172.29 68.44C173.527 68.44 174.444 68.2267 175.042 67.8C175.639 67.3307 176.002 66.776 176.13 66.136C176.3 65.4533 176.407 64.5787 176.45 63.512V38.104C176.407 37.0373 176.3 36.184 176.13 35.544C176.002 34.8613 175.639 34.3067 175.042 33.88C174.444 33.4107 173.527 33.176 172.29 33.176H171.906C171.479 33.176 171.18 33.112 171.01 32.984C170.839 32.8133 170.732 32.4293 170.69 31.832C170.69 31.448 170.775 31.128 170.946 30.872C171.159 30.5733 171.436 30.424 171.778 30.424C174.594 30.552 177.132 30.616 179.394 30.616H199.49C200.599 30.616 201.154 31.128 201.154 32.152L201.346 41.112C201.346 41.496 201.154 41.816 200.77 42.072C200.386 42.2853 200.002 42.392 199.618 42.392C199.106 42.392 198.658 42.3067 198.274 42.136C197.89 41.9227 197.676 41.624 197.634 41.24C197.292 39.1493 196.908 37.5707 196.482 36.504C196.098 35.3947 195.5 34.584 194.69 34.072C193.922 33.5173 192.812 33.2187 191.362 33.176H182.786V49.432H194.37C194.668 49.4747 194.903 49.6453 195.074 49.944C195.244 50.2 195.33 50.52 195.33 50.904C195.33 51.2453 195.244 51.544 195.074 51.8C194.903 52.056 194.668 52.184 194.37 52.184H182.786V64.28C182.871 65.176 182.978 65.9013 183.106 66.456C183.234 66.968 183.618 67.4373 184.258 67.864C184.898 68.2907 185.9 68.4827 187.266 68.44H193.154C194.647 68.3973 195.778 68.1627 196.546 67.736C197.314 67.2667 197.911 66.5627 198.338 65.624C198.807 64.6853 199.362 63.1493 200.002 61.016C200.3 60.248 201.026 59.9493 202.178 60.12C202.604 60.2053 202.967 60.376 203.266 60.632C203.607 60.888 203.756 61.208 203.714 61.592L202.434 69.656C202.306 70.2107 202.114 70.5733 201.858 70.744C201.602 70.9147 201.175 71 200.578 71H179.458C177.154 71 174.594 71.064 171.778 71.192Z" fill="black"/>
</g>
<line y1="0.5" x2="218" y2="0.5" stroke="black"/>
<line y1="100.5" x2="218" y2="100.5" stroke="black"/>
<defs>
<filter id="filter0_d_61814_32" x="14.752" y="29.336" width="193.025" height="50.944" filterUnits="userSpaceOnUse" color-interpolation-filters="sRGB">
<feFlood flood-opacity="0" result="BackgroundImageFix"/>
<feColorMatrix in="SourceAlpha" type="matrix" values="0 0 0 0 0 0 0 0 0 0 0 0 0 0 0 0 0 0 127 0" result="hardAlpha"/>
<feOffset dy="4"/>
<feGaussianBlur stdDeviation="2"/>
<feComposite in2="hardAlpha" operator="out"/>
<feColorMatrix type="matrix" values="0 0 0 0 0 0 0 0 0 0 0 0 0 0 0 0 0 0 0.25 0"/>
<feBlend mode="normal" in2="BackgroundImageFix" result="effect1_dropShadow_61814_32"/>
<feBlend mode="normal" in="SourceGraphic" in2="effect1_dropShadow_61814_32" result="shape"/>
</filter>
</defs>
</svg>
